<svg xmlns="http://www.w3.org/2000/svg" viewBox="0 0 612.1 114.22"><defs><style>.cls-1{fill:#0b3e73;}</style></defs><title>22_message</title><g id="Слой_2" data-name="Слой 2"><g id="Слой_1-2" data-name="Слой 1"><path class="cls-1" d="M595.92,103.31c-3.15-2-4.38-4.2-4.35-8.07.22-24.49.18-49,.1-73.46C591.62,7.82,583.85,0,570,0Q500.29,0,430.57,0H267.38Q244.21,0,221,0q-31.86,0-63.72,0Q89.21,0,21.09,0C8,0,0,8.13,0,21.3q0,35.49,0,71c0,13.83,8.13,21.92,22.11,21.93q91.95,0,183.9,0l1.59,0,77.3,0h31.17l1.59,0,77.31,0,1.1,0,63.88,0,1.87,0q54.09,0,108.2,0a23.26,23.26,0,0,0,8.37-1.11c3.12-1.2,6-1,9.24-.33,8,1.55,16.1,2.85,24.46-2.14C605.65,109,600.75,106.31,595.92,103.31Z"/></g></g></svg>