<svg xmlns="http://www.w3.org/2000/svg" viewBox="0 0 270.41 312"><title>22_phone</title><g id="Слой_2" data-name="Слой 2"><g id="Слой_1-2" data-name="Слой 1"><style>path{fill:#99d2eb}</style><path d="M83.21,254.79A20.81,20.81,0,1,0,104,275.59a20.83,20.83,0,0,0-20.79-20.8Zm0,31.21a10.4,10.4,0,1,1,10.38-10.41A10.43,10.43,0,0,1,83.21,286Z"/><path d="M67.59,26H88.41a5.21,5.21,0,0,0,0-10.41H67.59a5.21,5.21,0,0,0,0,10.41Z"/><path d="M104,26h5.21a5.21,5.21,0,0,0,0-10.41H104A5.21,5.21,0,1,0,104,26Z"/><path d="M270.41,62.41H176.79V22.9A22.92,22.92,0,0,0,153.89,0H22.9A22.94,22.94,0,0,0,0,22.9V289.1A22.94,22.94,0,0,0,22.9,312h131a22.92,22.92,0,0,0,22.9-22.9V171.59h93.62ZM22.9,10.41h131A12.52,12.52,0,0,1,166.41,22.9v8.31h-156V22.9A12.51,12.51,0,0,1,22.9,10.41Zm131,291.18H22.9A12.51,12.51,0,0,1,10.41,289.1V249.59h156V289.1a12.52,12.52,0,0,1-12.52,12.49Zm12.52-62.38h-156V41.59h156V62.41H72.79V171.59h20.8V208l48.55-36.41h24.27Zm93.59-78H138.66l-34.66,26v-26H83.21V72.79H260Z"/><path d="M109.21,109.21h52a5.21,5.21,0,0,0,0-10.42h-52a5.21,5.21,0,1,0,0,10.42Z"/><path d="M104,130a5.21,5.21,0,0,0,5.21,5.21H234a5.21,5.21,0,1,0,0-10.42H109.21A5.21,5.21,0,0,0,104,130Z"/></g></g></svg>