<svg xmlns="http://www.w3.org/2000/svg" viewBox="0 0 2377.42 3221.6"><title>26_man</title><style>path{fill:#acdbee}</style><g id="Слой_2" data-name="Слой 2"><g id="Layer_1" data-name="Layer 1"><path d="M1988.79,2132.76,1706,2014.89,1515.64,1889.3v-46.55c145.51-79.76,251.92-222.12,283-390.59,127.79-23.33,225-135.4,225-269.82a273.22,273.22,0,0,0-70.55-183.45V731.63C1953.06,328.2,1624.86,0,1221.45,0h-53.94c-403.39,0-731.6,328.2-731.6,731.63v268.54a273.27,273.27,0,0,0-69.43,182.17c0,134.43,97.2,246.5,225,269.82,31.07,168.46,137.48,310.83,283,390.59v41.58l-191,126c-2.49.78-5,1.65-7.43,2.66L388.65,2132.77C252.42,2180,0,2363.75,0,2730.55v406.17a84.85,84.85,0,0,0,84.77,84.88H641.48a84.78,84.78,0,0,0,0-169.55h-82v-340a84.78,84.78,0,0,0-169.55,0v340H169.54V2730.53c0-337.43,265.36-434.32,276.16-438.11,1.9-.64,3.76-1.33,5.61-2.1L656,2205,893.84,3054.2a84.74,84.74,0,0,0,18.86,167.37h92c.1,0,.19,0,.27,0a3.14,3.14,0,0,1,.32,0h380.36c.11,0,.21,0,.32,0s.18,0,.26,0h906.43c46.83,0,84.77-38.74,84.77-85.56V2730.53C2377.45,2363.74,2125,2180,1988.79,2132.76ZM1044,1930.82V1902.5a561.91,561.91,0,0,0,99.34,9h103.39a561.62,561.62,0,0,0,99.33-9V2010l-154.18,160L1044,2026v-95.18Zm381,638.6a84.38,84.38,0,0,0,28.08,13.31l-45.4,162.09-23.23-144,18-48Zm-467.5,0,26-19.1,21.87,52.21L982.7,2742.87l-45.55-162.63A84.32,84.32,0,0,0,957.52,2569.42Zm191.78-62.08L1124,2446.89l67.29-49.53,69.34,51-22.13,59Zm294.25-134.79-28.94-21.29c0-.05-.12-.09-.18-.14l-94.54-69.57,172-178.55a83.52,83.52,0,0,0,13-17.67l59.35,39.18ZM1808.08,1269V1095.63a104.73,104.73,0,0,1,0,173.39ZM1167.51,169.53h53.94c309.93,0,562.07,252.16,562.07,562.09v153c-.68-.67-1.4-1.3-2.09-2-1.1-1-2.18-2.06-3.34-3-.91-.77-1.86-1.51-2.8-2.23-1.21-.94-2.42-1.88-3.67-2.75-1-.71-2.1-1.36-3.16-2-1.22-.77-2.45-1.55-3.71-2.26s-2.55-1.32-3.84-2-2.27-1.15-3.45-1.66c-1.54-.69-3.12-1.27-4.71-1.85-1-.38-2-.77-3-1.11-1.76-.59-3.58-1.05-5.38-1.52-.75-.2-1.47-.45-2.23-.63-175.84-40-231.12-268-231.6-270a84.77,84.77,0,0,0-151.36-31c-214,295.88-685.69,298.83-692,298.83h-.34a82.4,82.4,0,0,0-8.65.44c-.89.09-1.76.27-2.64.39-1.93.25-3.87.5-5.76.88-1.21.25-2.38.63-3.58.92-1.52.37-3,.71-4.52,1.16s-2.69,1-4,1.49-2.52.84-3.72,1.35c-1.54.66-3,1.43-4.51,2.16-1,.48-1.94.88-2.88,1.39-1.51.83-3,1.76-4.43,2.67-.83.53-1.72,1-2.55,1.56-1.38.92-2.66,2-4,3-.85.64-1.73,1.23-2.56,1.91-1.18,1-2.29,2.06-3.42,3.09-.87.79-1.78,1.53-2.6,2.36-.52.52-1,1.08-1.48,1.61V731.6C605.46,421.69,857.59,169.53,1167.51,169.53ZM536,1182.34a104.83,104.83,0,0,1,46-86.71V1269A104.84,104.84,0,0,1,536,1182.34Zm215.54,167.79V1024.59c143.38-12.66,436.37-62,647.1-255,43.59,84.8,118.44,185.62,239.89,236.1v344.44c0,216-175.76,391.79-391.79,391.79H1143.38C927.32,1741.94,751.56,1566.17,751.56,1350.13Zm126.29,735.1a84.26,84.26,0,0,0,22.25,37.25l163,158.75L939,2372.55l-120.69-248ZM1104.56,3052l60.52-375.13H1225L1285.52,3052Zm1103.34,0H1987.49v-340a84.77,84.77,0,0,0-169.54,0v340H1497.7l235.85-842,192.58,80.26c1.5.64,3.55,1.39,5.1,1.94,11.29,4,276.67,100.85,276.67,438.27Z"/></g></g></svg>