<svg xmlns="http://www.w3.org/2000/svg" viewBox="0 0 615.71 59.79"><defs><style>.cls-1{fill:#fff;stroke:#0b3e73;stroke-miterlimit:10;stroke-width:2px;}</style></defs><title>26_message</title><g id="Слой_2" data-name="Слой 2"><g id="Слой_1-2" data-name="Слой 1"><path class="cls-1" d="M594.86,46.37a5.39,5.39,0,0,1-2.51-5c.13-7.5.07-15,0-22.5,0-8.1-3.39-13-10.86-16.19C577.9,1.17,574.12,1,570.27,1h-232L22.81,1a48.75,48.75,0,0,0-5,.15C7.07,2.31,1.05,9,1,19.68c0,7.33.13,14.67,0,22-.13,6.6,3.08,11,8.54,14.14,4.19,2.39,8.78,3,13.5,3q115.46,0,230.91,0l1.09,0q157.23,0,314.46,0c3,0,6.23.16,8.88-.93,4.2-1.73,8-.83,12.1-.13,7.22,1.24,14.53,2,22.62-2.42A56.14,56.14,0,0,1,594.86,46.37Z"/></g></g></svg>