<svg xmlns="http://www.w3.org/2000/svg" viewBox="0 0 2377.42 3269.65"><title>26_woman</title><style>path{fill:#acdbee}</style><g id="Слой_2" data-name="Слой 2"><g id="Layer_1" data-name="Layer 1"><path d="M1988.77,2180.81,1701.34,2061a84.71,84.71,0,0,0-11.9-4l-173.84-43.81V1909.67c118.84,19.75,227.33,50.67,314.18,89.85A84.61,84.61,0,0,0,1935.3,1969a81.67,81.67,0,0,0,5.73-6.65c167.53-216.12,259.8-496,259.8-788.16C2200.83,526.74,1749.81,0,1195.45,0S190.08,526.74,190.08,1174.18c0,298.59,95.87,583.06,269.94,801,.51.64,1.11,1.18,1.64,1.82.72.86,1.49,1.67,2.25,2.51,1.94,2.12,4,4.12,6.09,6,.67.59,1.3,1.17,2,1.74a84.32,84.32,0,0,0,29.9,16.1c.56.17,1.12.3,1.68.47a84.6,84.6,0,0,0,9.63,2.08c.57.1,1.13.2,1.69.28a84.34,84.34,0,0,0,11.44.86c.5,0,1-.11,1.49-.12a84.37,84.37,0,0,0,10.13-.84c1.37-.19,2.73-.38,4.07-.64a85.76,85.76,0,0,0,10.74-2.72c1.26-.41,2.51-1,3.76-1.45,1.54-.59,3.08-1.11,4.6-1.79,86.62-39.07,194.74-69.9,313.34-89.69v102.6L689,2056.83a83.86,83.86,0,0,0-12.88,4.19L388.63,2180.8C252.42,2228,0,2411.78,0,2778.58v406.17a84.86,84.86,0,0,0,84.77,84.87h919.92c.1,0,.19,0,.27,0s.21,0,.32,0h380.35l.32,0a.65.65,0,0,0,.18,0h906.52c46.83,0,84.77-38.74,84.77-85.56V2778.58C2377.43,2411.78,2125,2228,1988.77,2180.81ZM1069.3,3100.08,892.45,2468.76c81.06,29.14,185.29,54.08,304.82,54.08,92.54,0,194.24-15.1,301.35-54.59l-177,631.84H1069.3ZM536.44,1230.67a104.8,104.8,0,0,1,46-86.71v173.4A104.76,104.76,0,0,1,536.44,1230.67ZM752,1398.47V1055.19c95.63-32.32,281.4-106.82,438.36-239.66,75.74,73.09,221,184.07,448.62,244.28v338.66c0,216-175.76,391.81-391.78,391.81H1143.77C927.73,1790.28,752,1614.52,752,1398.47Zm1102.51-167.8a104.76,104.76,0,0,1-46,86.68V1144A104.82,104.82,0,0,1,1854.47,1230.67Zm-659-1061.12c460.88,0,835.83,450.67,835.83,1004.63,0,237.13-69.09,464.07-195.3,644.81-51.53-19.45-107.52-36.58-166.82-51A559.83,559.83,0,0,0,1799,1500.49c127.79-23.34,225-135.39,225-269.82,0-133.22-95.43-244.52-221.52-269.23a84.73,84.73,0,0,0-61.84-51.9C1411,842.37,1270.07,653.58,1264.53,646a84.76,84.76,0,0,0-129.8-10C945.21,830.48,648.79,909.8,645.91,910.55a84.56,84.56,0,0,0-57.31,50.86c-126.17,24.64-221.71,136-221.71,269.26,0,134.44,97.21,246.51,225,269.82A559.43,559.43,0,0,0,721.74,1768a1424.35,1424.35,0,0,0-166.66,50.94c-126.31-180.74-195.45-407.1-195.45-644.76C359.63,620.22,734.58,169.55,1195.46,169.55ZM979,2161.76a84.77,84.77,0,0,0,65-82.44V1950.76a561.8,561.8,0,0,0,99.77,9.06h103.39a561.75,561.75,0,0,0,98.9-8.9v128.4a84.74,84.74,0,0,0,64,82.19l162.9,41.07-14.36,51.32c-343.58,193.72-640.68,51.42-725.95,1.59l-15.42-55ZM559.49,3100.08v-340a84.78,84.78,0,0,0-169.55,0v340H169.54v-321.5c0-337.43,265.38-434.32,276.16-438.11,1.9-.64,3.76-1.33,5.61-2.1L656,2253.09l22,78.69c0,.13.07.24.1.34l215.11,768H559.49Zm1648.4,0H1987.48v-340a84.77,84.77,0,0,0-169.54,0v340H1497.69l235.84-841.95,192.59,80.25c1.5.64,3.55,1.39,5.1,1.94,11.29,4,276.67,100.85,276.67,438.27Z"/></g></g></svg>