<svg xmlns="http://www.w3.org/2000/svg" viewBox="0 0 108 74.57"><defs><style>.cls-1{fill:none;stroke:#59b8dd;stroke-width:3px;}.cls-2{fill:#fff;}.cls-3{fill:#59b8dd;}</style></defs><title>chat</title><g id="Слой_2" data-name="Слой 2"><g id="Objects"><g id="Speech"><path class="cls-1" d="M106.5,63.31h0V25a9.76,9.76,0,0,0-9.76-9.76H27L16,3.74V15.25h-4.7A9.76,9.76,0,0,0,1.5,25V63.32a9.76,9.76,0,0,0,9.76,9.75H96.74A9.76,9.76,0,0,0,106.5,63.31Z"/><line class="cls-2" x1="81.1" y1="60.74" x2="13.56" y2="60.74"/><path class="cls-3" d="M81.1,59.24H13.56a1.5,1.5,0,1,0,0,3H81.1a1.5,1.5,0,0,0,0-3Z"/><line class="cls-2" x1="94.78" y1="50.33" x2="13.22" y2="50.33"/><path class="cls-3" d="M94.78,48.83H13.22a1.5,1.5,0,1,0,0,3H94.78a1.5,1.5,0,0,0,0-3Z"/><line class="cls-2" x1="94.78" y1="39.91" x2="13.22" y2="39.91"/><path class="cls-3" d="M94.78,38.41H13.22a1.5,1.5,0,1,0,0,3H94.78a1.5,1.5,0,0,0,0-3Z"/><path class="cls-3" d="M14.66,29.41A1.45,1.45,0,1,1,13.22,28,1.44,1.44,0,0,1,14.66,29.41Z"/><path class="cls-3" d="M28.07,29.41A1.45,1.45,0,1,1,26.63,28,1.44,1.44,0,0,1,28.07,29.41Z"/><path class="cls-3" d="M41.48,29.41A1.45,1.45,0,1,1,40,28,1.44,1.44,0,0,1,41.48,29.41Z"/></g></g></g></svg>